<svg width="82" height="28" viewBox="0 0 82 28" fill="none" xmlns="http://www.w3.org/2000/svg">
<path d="M39.2047 5.50504C37.4469 5.47018 35.688 5.49874 33.9296 5.48874C33.9034 5.48849 33.8783 5.48948 33.8541 5.49077H32.9435C32.9776 5.28663 33.0118 5.08224 33.0462 4.8781C33.276 3.50999 33.5179 2.1438 33.7428 0.774873C33.8509 0.116892 33.7503 0.00431271 33.0951 0.00153604C32.1989 -0.0019856 31.3027 0.00808266 30.4066 4.61151e-05C29.9934 -0.00347552 29.804 0.194639 29.7378 0.616422C29.5251 1.96929 29.2866 3.31785 29.0604 4.66849C28.3941 8.65139 27.7467 12.6375 27.0554 16.6156C26.7541 18.3486 27.7212 18.9988 29.013 18.9976C30.298 18.9966 31.5831 18.9974 32.8682 18.9974C34.1532 18.9976 35.4382 19.0041 36.7233 18.9958C38.2725 18.9858 39.1651 18.2606 39.47 16.673C40.0427 13.6915 40.5344 10.6936 40.973 7.68768C41.154 6.44719 40.4094 5.52885 39.2047 5.50504ZM36.6147 10.0516C36.4013 11.475 36.1565 12.8943 35.8902 14.3081C35.7431 15.0887 35.5621 15.2422 34.7885 15.2705C33.8935 15.3033 32.9961 15.2979 32.1007 15.2733C31.5056 15.2567 31.3482 15.0423 31.4483 14.4377C31.7446 12.6475 32.0434 10.8581 32.3433 9.06841H33.7558C34.4299 9.07514 35.1044 9.06841 35.7785 9.07141C36.5442 9.07464 36.7331 9.25973 36.6147 10.0516Z" fill="white"/>
<path d="M24.2564 5.01802C21.5369 4.99539 18.8172 4.99228 16.0976 5.01905C14.7402 5.03256 13.8031 5.86423 13.5482 7.29843C13.0175 10.2835 12.5322 13.278 12.0325 16.2693C12.0028 16.4471 12.0062 16.6321 12.0018 16.8139C11.9643 18.3507 12.5226 18.9772 13.9749 18.9928C15.2837 19.0068 16.5926 18.9959 17.9013 18.9964C19.1083 18.9972 20.315 18.999 21.5219 18.9967C23.4026 18.9933 24.2223 18.2866 24.5681 16.2962C24.9288 14.221 25.2565 12.1387 25.5848 10.0573C25.7461 9.03631 25.9953 8.02801 26 6.98235C26.006 5.67823 25.4629 5.02784 24.2564 5.01802ZM21.6775 9.62871C21.4271 11.1331 21.1744 12.6369 20.9145 14.1394C20.7811 14.9088 20.5042 15.1526 19.7651 15.1594C18.9328 15.1672 18.1003 15.1662 17.2678 15.1602C16.4626 15.1547 16.2862 14.9309 16.428 14.0413C16.6313 12.7683 16.857 11.4993 17.073 10.2287C17.0974 10.0856 17.1213 9.94223 17.1439 9.79886C17.283 8.91832 17.4979 8.71918 18.3205 8.71499C18.7284 8.71286 19.1361 8.71445 19.544 8.71445V8.7163C20.0195 8.7163 20.4955 8.70541 20.9708 8.71918C21.5524 8.73573 21.7775 9.02796 21.6775 9.62871Z" fill="white"/>
<path d="M69.1629 5.02039C66.2328 4.99473 63.3023 4.99134 60.3724 5.02146C58.9442 5.03601 57.938 5.87374 57.6727 7.26991C57.102 10.2733 56.5747 13.2852 56.0455 16.2964C55.9831 16.6509 55.9976 17.0239 56.015 17.3865C56.0504 18.1287 56.4283 18.6046 57.1283 18.8405C57.4772 18.9579 57.8359 19.0007 58.2031 19C59.5865 18.9968 60.9695 18.9986 62.3527 18.9992C63.5723 18.9997 64.7915 18.9997 66.011 18.9997C66.0657 18.9997 66.1201 18.9997 66.1748 18.9995C68.2274 18.995 69.0917 18.302 69.4708 16.2738C69.8553 14.2164 70.2031 12.1521 70.5514 10.0884C70.7265 9.04934 70.9974 8.02299 71 6.95848C71.0036 5.68825 70.4236 5.03161 69.1629 5.02039ZM66.3681 9.64731C66.1017 11.1336 65.8353 12.62 65.5615 14.105C65.4121 14.915 65.1258 15.1519 64.3062 15.162C63.8513 15.1677 63.3965 15.163 62.9417 15.163V15.1589C62.4322 15.1589 61.9231 15.1589 61.4136 15.1589C60.9101 15.1589 60.6536 14.9059 60.7271 14.4063C60.8672 13.4533 61.0345 12.5038 61.1972 11.5542C61.3079 10.9086 61.4244 10.2642 61.5494 9.62133C61.68 8.94956 61.9489 8.72301 62.631 8.7181C63.6134 8.71113 64.5958 8.70825 65.5782 8.71969C66.2406 8.72719 66.4807 9.01863 66.3681 9.64731Z" fill="white"/>
<path d="M50.9258 6.20079C51 5.78022 50.8559 5.5692 50.4256 5.57793C49.871 5.58894 49.3156 5.5635 48.7616 5.58315C48.3211 5.5986 48.1879 5.40256 48.278 4.97478C48.3462 4.65092 48.3857 4.32054 48.4506 3.99594C48.5919 3.28593 48.8523 3.06618 49.5654 3.05521C50.0528 3.04802 50.5407 3.04153 51.0277 3.05521C51.4409 3.06692 51.6415 2.87485 51.6953 2.45157C51.7725 1.84594 51.8661 1.24155 51.9788 0.642175C52.0611 0.204678 51.9049 0.0103644 51.4891 0.0113512C50.1107 0.0146032 48.7305 -0.0272917 47.3543 0.0320071C45.8559 0.0967783 45.0195 0.903009 44.7292 2.43684C44.58 3.22515 44.4211 4.01391 44.3269 4.81014C44.2625 5.35318 44.091 5.65568 43.512 5.58717C43.2323 5.554 42.9656 5.62101 42.9062 5.98775C42.7863 6.7282 42.6691 7.4691 42.5432 8.20847C42.4892 8.52764 42.5736 8.70078 42.9136 8.73792C43.6098 8.81366 43.6237 8.82837 43.5009 9.57023C43.0196 12.4789 42.5279 15.3855 42.0404 18.2929C41.937 18.9095 41.9997 18.9889 42.6165 18.9972C43.0533 19.0029 43.4904 18.9982 43.9275 18.9984C44.3309 18.9986 44.7345 18.9999 45.1379 18.9984C45.8674 18.9959 45.9115 18.9598 46.0409 18.191C46.5388 15.2323 47.0376 12.2736 47.5266 9.31314C47.5914 8.92104 47.7624 8.72619 48.1597 8.73518C48.7647 8.74913 49.3702 8.7257 49.9751 8.74066C50.3438 8.7499 50.5277 8.59739 50.5837 8.21224C50.6815 7.53907 50.8076 6.87043 50.9258 6.20079Z" fill="white"/>
<path d="M56.4736 0.00174893C55.6352 0.00328415 54.7969 -0.000215247 53.9584 1.05199e-05C53.1049 0.000507208 53.0769 0.050176 52.9356 0.913894C52.3781 4.32583 51.8072 7.73527 51.2381 11.1452C50.8336 13.5686 50.4263 15.9914 50.0156 18.4138C49.944 18.8359 50.1209 19.0016 50.5041 18.9986C50.9905 18.9944 51.4768 18.9976 51.9632 18.9976V18.9999C52.2983 18.9999 52.6338 19.0001 52.9692 18.9999C53.8744 18.9994 53.881 19.0006 54.0422 18.0419C54.4209 15.7923 54.7889 13.5405 55.1677 11.2907C55.7653 7.74304 56.361 4.1949 56.9779 0.651056C57.0636 0.159244 56.9006 0.0010039 56.4736 0.00174893Z" fill="white"/>
<path d="M11.4834 5.00001C10.3821 5.00452 9.28049 5.00329 8.17923 5.0015C7.80387 5.00098 7.61166 5.15369 7.54413 5.52135C6.87987 9.13279 6.19722 12.7415 5.52997 16.3525C5.35824 17.2819 5.08625 18.1577 4.50791 18.9539C3.71679 20.0436 2.98873 21.1746 2.24202 22.2927C2.12984 22.4607 1.89558 22.629 2.05247 22.8546C2.19411 23.0583 2.45998 22.9874 2.67715 22.9906C3.19973 22.9987 3.72266 22.9934 4.24523 22.9931C4.82392 22.9929 5.40316 22.9785 5.98139 22.9979C6.36177 23.0105 6.60952 22.8689 6.80776 22.5689C7.38069 21.7014 7.95887 20.8366 8.55931 19.986C9.18003 19.1071 9.59685 18.1607 9.78829 17.1172C10.1037 15.3983 10.4451 13.6838 10.7718 11.9669C11.1748 9.85105 11.5717 7.734 11.9779 5.61868C12.0525 5.22811 11.9505 4.99827 11.4834 5.00001Z" fill="white"/>
<path d="M11.1858 1H9.21198H7.11306H2.57542C2.25761 1 2 1.20975 2 1.46857V1.49794C2 1.75678 2.25761 1.96652 2.57542 1.96652H6.19607L6.13429 2.1919L6.12232 2.23465H6.11612L5.89928 3.01888H4.55784C4.3168 3.01888 4.1213 3.17809 4.1213 3.3743V3.62998C4.1213 3.82615 4.3168 3.9854 4.55784 3.9854H6.4784C6.53216 3.99448 6.58797 4 6.64561 4H10.7184C11.0996 4 11.4299 3.78452 11.5127 3.48154L11.6971 2.80806L11.709 2.76535H11.7153L11.9801 1.80688C12.0936 1.39286 11.7067 1 11.1858 1Z" fill="url(#paint0_linear_140_4277)"/>
<path opacity="0.32" d="M12.267 1H10.4909H8.60168H4.51789C4.23187 1 4 1.20975 4 1.46857V1.49794C4 1.75678 4.23187 1.96652 4.51789 1.96652H7.77643L7.7208 2.1919L7.7103 2.23465H7.70447L7.50955 3.01888H6.30203C6.08516 3.01888 5.90942 3.17809 5.90942 3.3743V3.62998C5.90942 3.82615 6.08516 3.9854 6.30203 3.9854H8.03047C8.07911 3.99448 8.12912 4 8.18096 4H11.8464C12.1897 4 12.4867 3.78452 12.5613 3.48154L12.7274 2.80806L12.738 2.76535H12.7435L12.9822 1.80688C13.0841 1.39286 12.7359 1 12.267 1Z" fill="url(#paint1_linear_140_4277)"/>
<defs>
<linearGradient id="paint0_linear_140_4277" x1="1.76744" y1="3.99996" x2="12.3488" y2="3.99996" gradientUnits="userSpaceOnUse">
<stop stop-color="#FF0897"/>
<stop offset="1" stop-color="#FFB100"/>
</linearGradient>
<linearGradient id="paint1_linear_140_4277" x1="3.7907" y1="3.99996" x2="13.314" y2="3.99996" gradientUnits="userSpaceOnUse">
<stop stop-color="#FF0897"/>
<stop offset="1" stop-color="#FFB100"/>
</linearGradient>
</defs>
</svg>
